<?xml version="1.0" encoding="utf-8"?>
<!-- Generator: Adobe Illustrator 23.0.1, SVG Export Plug-In . SVG Version: 6.00 Build 0)  -->
<svg version="1.1" id="Layer_1" xmlns="http://www.w3.org/2000/svg" xmlns:xlink="http://www.w3.org/1999/xlink" x="0px" y="0px"
	 viewBox="0 0 1004 604" style="enable-background:new 0 0 1004 604;" xml:space="preserve">
<style type="text/css">
	.st0{fill:#8C8C8C;stroke:#CCCCCC;stroke-width:4;stroke-miterlimit:10;}
	.st1{fill:none;stroke:#CCCCCC;stroke-width:4;stroke-miterlimit:10;}
	.st2{fill:#FF3F3F;stroke:#CCCCCC;stroke-width:4;stroke-miterlimit:10;}
	.st3{fill:#FFFFFF;}
	.st4{font-family:'NunitoSans-Regular';}
	.st5{font-size:26px;}
	.st6{font-size:31px;}
	.st7{font-size:34px;}
	.st8{fill:#F2F2F2;}
	.st9{font-size:20px;}
</style>
<rect x="2" y="2" class="st0" width="1000" height="85.71"/>
<rect x="2" y="173.43" class="st1" width="1000" height="85.71"/>
<rect x="2" y="344.86" class="st1" width="1000" height="85.71"/>
<rect x="2" y="516.29" class="st1" width="1000" height="85.71"/>
<rect x="862" y="2" class="st2" width="140" height="600"/>
<rect x="722" y="2" class="st1" width="140" height="600"/>
<rect x="582" y="2" class="st1" width="140" height="600"/>
<rect x="442" y="2" class="st1" width="140" height="600"/>
<rect x="302" y="2" class="st1" width="140" height="600"/>
<text transform="matrix(1 0 0 1 330.6348 37.9296)"><tspan x="0" y="0" class="st3 st4 st5">Record</tspan><tspan x="6.95" y="31.2" class="st3 st4 st5">Union</tspan></text>
<text transform="matrix(1 0 0 1 460.3388 53.31)" class="st3 st4 st5">CD Baby</text>
<text transform="matrix(1 0 0 1 598.168 53.31)" class="st3 st4 st5">DistroKid</text>
<text transform="matrix(1 0 0 1 731.8887 53.3102)" class="st3 st4 st5">Tune Core</text>
<text transform="matrix(1 0 0 1 882.7568 53.3102)" class="st3 st4 st5">PlayLine</text>
<text transform="matrix(1 0 0 1 28.6432 141.8592)" class="st4 st6">Number of Stores</text>
<text transform="matrix(1 0 0 1 44.608 229.4787)" class="st4 st6">Cost Per Single</text>
<text transform="matrix(1 0 0 1 41.6324 311.8733)" class="st4 st6">Cost Per Album</text>
<text transform="matrix(1 0 0 1 17.6695 401.3098)" class="st4 st6">Royalties You Keep</text>
<text transform="matrix(1 0 0 1 39.5235 482.9995)" class="st4 st6">Days to Release</text>
<text transform="matrix(1 0 0 1 71.4225 569.6202)" class="st4 st6">UPC Codes</text>
<text transform="matrix(1 0 0 1 353.4004 141.8592)" class="st4 st6">15</text>
<text transform="matrix(1 0 0 1 474.8008 141.8592)" class="st4 st6">150+</text>
<text transform="matrix(1 0 0 1 614.8008 141.8592)" class="st4 st6">150+</text>
<text transform="matrix(1 0 0 1 754.8009 141.8593)" class="st4 st6">150+</text>
<text transform="matrix(1 0 0 1 892.2002 142.8592)" class="st3 st4 st7">150+</text>
<text transform="matrix(1 0 0 1 344.1006 217.7323)" class="st4 st6">$15</text>
<text transform="matrix(1 0 0 1 471.2513 229.4789)" class="st4 st6">$9.95</text>
<text transform="matrix(1 0 0 1 601.9512 217.7322)" class="st4 st6">$19.99</text>
<text transform="matrix(1 0 0 1 751.2511 217.7323)" class="st4 st6">$9.99</text>
<text transform="matrix(1 0 0 1 883.4319 229.4787)" class="st8 st4 st7">FREE*</text>
<text transform="matrix(1 0 0 1 885.4316 314.874)" class="st8 st4 st7">FREE*</text>
<text transform="matrix(1 0 0 1 344.1006 302)" class="st4 st6">$25</text>
<text transform="matrix(1 0 0 1 484.101 311.8737)" class="st4 st6">$49</text>
<text transform="matrix(1 0 0 1 611.251 302)" class="st4 st6">19.99</text>
<text transform="matrix(1 0 0 1 741.9513 302.0001)" class="st4 st6">$49.99</text>
<text transform="matrix(1 0 0 1 338.9854 399.3101)" class="st4 st6">85%</text>
<text transform="matrix(1 0 0 1 478.9858 399.3101)" class="st4 st6">91%</text>
<text transform="matrix(1 0 0 1 609.6855 399.3094)" class="st4 st6">100%</text>
<text transform="matrix(1 0 0 1 749.6857 399.3101)" class="st4 st6">100%</text>
<text transform="matrix(1 0 0 1 886.5908 400.3101)" class="st8 st4 st7">100%</text>
<text transform="matrix(1 0 0 1 346.813 482.9995)" class="st4 st6">4-7</text>
<text transform="matrix(1 0 0 1 486.8134 482.9995)" class="st4 st6">3-5</text>
<text transform="matrix(1 0 0 1 626.8125 482.9995)" class="st4 st6">2-5</text>
<text transform="matrix(1 0 0 1 782.7002 482.9995)" class="st4 st6">5</text>
<text transform="matrix(1 0 0 1 905.376 483.9995)" class="st8 st4 st7">1-5</text>
<text transform="matrix(1 0 0 1 344.1006 569.6201)" class="st4 st6">$15</text>
<text transform="matrix(1 0 0 1 493.4008 569.6202)" class="st4 st6">$5</text>
<text transform="matrix(1 0 0 1 614.6924 569.6202)" class="st4 st6">FREE</text>
<text transform="matrix(1 0 0 1 754.6924 569.6202)" class="st4 st6">FREE</text>
<text transform="matrix(1 0 0 1 892.082 570.6202)" class="st8 st4 st7">FREE</text>
<text transform="matrix(1 0 0 1 28.1163 53.31)" class="st3 st4 st6">Features/Provider</text>
<text transform="matrix(1 0 0 1 334.0605 325.1406)" class="st4 st9">Per Year</text>
<text transform="matrix(1 0 0 1 614.0606 325.1406)" class="st4 st9">Per Year</text>
<text transform="matrix(1 0 0 1 754.0605 325.1406)" class="st4 st9">Per Year</text>
<text transform="matrix(1 0 0 1 754.0607 240.2676)" class="st4 st9">Per Year</text>
<text transform="matrix(1 0 0 1 614.0606 240.2677)" class="st4 st9">Per Year</text>
<text transform="matrix(1 0 0 1 334.0605 240.2677)" class="st4 st9">Per Year</text>
<rect x="2" y="87.71" class="st1" width="1000" height="85.71"/>
<rect x="2" y="259.14" class="st1" width="1000" height="85.71"/>
<rect x="2" y="430.57" class="st1" width="1000" height="85.71"/>
</svg>
