<?xml version="1.0" encoding="utf-8"?>
<!-- Generator: Adobe Illustrator 23.0.1, SVG Export Plug-In . SVG Version: 6.00 Build 0)  -->
<svg version="1.1" id="Layer_1" xmlns="http://www.w3.org/2000/svg" xmlns:xlink="http://www.w3.org/1999/xlink" x="0px" y="0px"
	 viewBox="0 0 87 26" style="enable-background:new 0 0 87 26;" xml:space="preserve">
<style type="text/css">
	.st0{fill-rule:evenodd;clip-rule:evenodd;fill:#BBBBBB;}
	.st1{fill-rule:evenodd;clip-rule:evenodd;}
	.st2{fill-rule:evenodd;clip-rule:evenodd;fill:#555555;}
</style>
<path class="st0" d="M31.6,21.7c-2.9,2.1-7,3.3-10.6,3.3c-5,0-9.5-1.9-12.9-5c-0.3-0.2,0-0.6,0.3-0.4c3.7,2.1,8.2,3.4,12.9,3.4
	c3.2,0,6.7-0.7,9.9-2C31.7,20.8,32.1,21.4,31.6,21.7"/>
<path class="st0" d="M32.8,20.3c-0.4-0.5-2.4-0.2-3.3-0.1c-0.3,0-0.3-0.2-0.1-0.4c1.6-1.2,4.3-0.8,4.6-0.4c0.3,0.4-0.1,3.1-1.6,4.4
	c-0.2,0.2-0.5,0.1-0.4-0.2C32.4,22.8,33.2,20.8,32.8,20.3"/>
<path class="st1" d="M29.5,11.7l0-1.1c0-0.2,0.1-0.3,0.3-0.3l5,0c0.2,0,0.3,0.1,0.3,0.3v1c0,0.2-0.1,0.4-0.4,0.7l-2.6,3.7
	c1,0,2,0.1,2.9,0.6c0.2,0.1,0.3,0.3,0.3,0.4l0,1.2c0,0.2-0.2,0.4-0.4,0.3c-1.5-0.8-3.6-0.9-5.3,0c-0.2,0.1-0.4-0.1-0.4-0.3l0-1.1
	c0-0.2,0-0.5,0.2-0.8l3-4.3l-2.6,0C29.6,12,29.5,11.8,29.5,11.7C29.5,11.7,29.5,11.7,29.5,11.7 M11.2,18.7l-1.5,0
	c-0.1,0-0.3-0.1-0.3-0.3l0-7.9c0-0.2,0.1-0.3,0.3-0.3h1.4c0.1,0,0.3,0.1,0.3,0.3l0,1h0c0.4-1,1.1-1.5,2-1.5c1,0,1.6,0.5,2,1.5
	c0.4-1,1.2-1.5,2.1-1.5c0.6,0,1.3,0.3,1.8,0.9c0.5,0.7,0.4,1.6,0.4,2.5v5c0,0.2-0.1,0.3-0.3,0.3c0,0,0,0,0,0l-1.5,0
	c-0.2,0-0.3-0.1-0.3-0.3l0-4.2c0-0.3,0-1.2,0-1.5c-0.1-0.5-0.5-0.7-0.9-0.7c-0.4,0-0.8,0.3-0.9,0.6c-0.2,0.4-0.1,1.1-0.1,1.5l0,4.2
	c0,0.2-0.1,0.3-0.3,0.3c0,0,0,0,0,0l-1.5,0c-0.2,0-0.3-0.1-0.3-0.3l0-4.2c0-0.9,0.1-2.2-0.9-2.2c-1.1,0-1.1,1.3-1.1,2.2l0,4.2
	C11.5,18.6,11.4,18.7,11.2,18.7 M39.4,11.7c-1.1,0-1.2,1.5-1.2,2.5c0,1,0,3,1.2,3c1.2,0,1.2-1.7,1.2-2.7c0-0.7,0-1.5-0.2-2.1
	C40.2,11.9,39.9,11.7,39.4,11.7 M39.4,10.1c2.3,0,3.5,2,3.5,4.4c0,2.4-1.3,4.3-3.5,4.3c-2.2,0-3.4-2-3.4-4.4
	C36,12,37.2,10.1,39.4,10.1 M45.8,18.7l-1.5,0c-0.2,0-0.3-0.1-0.3-0.3l0-7.9c0-0.1,0.1-0.3,0.3-0.3l1.4,0c0.1,0,0.2,0.1,0.3,0.2v1.2
	h0c0.4-1.1,1-1.6,2.1-1.6c0.7,0,1.4,0.2,1.8,0.9c0.4,0.6,0.4,1.7,0.4,2.5l0,5c0,0.1-0.1,0.3-0.3,0.2l-1.5,0c-0.1,0-0.3-0.1-0.3-0.2
	l0-4.3c0-0.9,0.1-2.1-1-2.1c-0.4,0-0.7,0.3-0.9,0.6c-0.2,0.5-0.2,1-0.2,1.5l0,4.2C46.1,18.6,46,18.7,45.8,18.7 M25.2,16.6
	c-0.2,0.4-0.6,0.7-1.1,0.7c-0.6,0-0.9-0.4-0.9-1.1c0-1.3,1.2-1.5,2.3-1.5v0.3C25.5,15.5,25.5,16,25.2,16.6 M28.2,17.3
	c-0.3-0.4-0.6-0.7-0.6-1.4l0-2.4c0-1,0.1-1.9-0.7-2.6c-0.6-0.6-1.6-0.8-2.3-0.8c-1.5,0-3.1,0.6-3.4,2.3c0,0.2,0.1,0.3,0.2,0.3
	l1.5,0.2c0.1,0,0.2-0.1,0.3-0.3c0.1-0.6,0.6-0.9,1.2-0.9c0.3,0,0.7,0.1,0.9,0.4c0.2,0.3,0.2,0.7,0.2,1.1v0.2c-0.9,0.1-2,0.2-2.9,0.5
	c-1,0.4-1.6,1.3-1.6,2.5c0,1.6,1,2.4,2.3,2.4c1.1,0,1.7-0.3,2.5-1.1c0.3,0.4,0.4,0.6,0.9,1c0.1,0.1,0.3,0.1,0.4,0l0,0
	c0.3-0.3,0.9-0.8,1.2-1C28.3,17.6,28.3,17.4,28.2,17.3 M5.2,16.6C5,17,4.6,17.3,4.2,17.3c-0.6,0-0.9-0.4-0.9-1.1
	c0-1.3,1.2-1.5,2.3-1.5V15C5.5,15.6,5.5,16.1,5.2,16.6 M8.2,17.3c-0.3-0.4-0.6-0.7-0.6-1.4l0-2.4c0-1,0.1-1.9-0.7-2.6
	c-0.6-0.6-1.6-0.8-2.3-0.8c-1.5,0-3.1,0.5-3.4,2.3c0,0.2,0.1,0.3,0.2,0.3L3,12.9c0.1,0,0.2-0.1,0.3-0.3c0.1-0.6,0.6-0.9,1.2-0.9
	c0.3,0,0.7,0.1,0.9,0.4c0.2,0.3,0.2,0.7,0.2,1.1v0.2c-0.9,0.1-2,0.2-2.9,0.5c-1,0.4-1.6,1.3-1.6,2.5c0,1.6,1,2.4,2.3,2.4
	c1.1,0,1.7-0.3,2.5-1.1c0.3,0.4,0.4,0.6,0.9,1c0.1,0.1,0.3,0.1,0.4,0l0,0c0.3-0.3,0.9-0.8,1.2-1C8.3,17.6,8.3,17.4,8.2,17.3"/>
<path class="st0" d="M60,8.1l-7.3,0l0-1.3l7.3,0L60,8.1z M60,6.2l-7.3,0V4.9l7.3,0L60,6.2z M60,4.3l-7.3,0l0-1.3L60,3L60,4.3z
	 M60,2.4l-7.3,0V1.1l7.3,0L60,2.4z M67.9,8.1l-7.3,0l0-1.3l7.3,0L67.9,8.1z M67.9,6.2l-7.3,0V4.9l7.3,0L67.9,6.2z M75.9,8.1l-7.3,0
	l0-1.3l7.3,0L75.9,8.1z M75.9,6.2l-7.3,0V4.9l7.3,0L75.9,6.2z M75.9,4.3l-7.3,0l0-1.3l7.3,0L75.9,4.3z"/>
<path class="st2" d="M71.1,17c0,0,0.1-0.1,0.1-0.1c0,0,0.1,0,0.1,0c0.8,0.4,1.5,0.6,2.1,0.6c0.8,0,1.4-0.5,1.4-1.2
	c0-0.6-0.3-0.9-1.1-1.3c-1.2-0.5-1.5-0.7-1.9-1.1c-0.5-0.4-0.8-1-0.8-1.6c0-1.4,1.1-2.4,2.6-2.4c0.9,0,2.2,0.4,2.2,0.7
	c0,0,0,0,0,0.1l-0.3,0.6c0,0.1-0.1,0.1-0.2,0.1c0,0-0.1,0-0.1,0c-0.7-0.3-1.2-0.4-1.6-0.4c-0.8,0-1.3,0.4-1.3,1.1
	c0,0.3,0.1,0.6,0.3,0.8c0.2,0.2,0.2,0.2,1.8,1c1.3,0.6,1.7,1.2,1.7,2.2c0,1.5-1.1,2.4-2.8,2.4c-0.9,0-1.9-0.3-2.6-0.7
	c-0.1-0.1-0.1-0.1-0.1-0.2c0,0,0,0,0-0.1L71.1,17 M77.7,10.6c0-0.2,0-0.2,0.2-0.2h0.9c0.2,0,0.2,0,0.2,0.2v7.8
	c0,0.2-0.1,0.3-0.3,0.3h-0.7c-0.2,0-0.3-0.1-0.3-0.3L77.7,10.6 M86,11.9C86,12,85.9,12,85.9,12c0,0-0.1,0-0.1-0.1
	c-0.8-0.6-1.2-0.8-1.8-0.8c-1.4,0-2.1,1.1-2.1,3.2c0,2.2,0.6,3.2,1.9,3.2c0.7,0,1.1-0.2,2-0.9c0.1,0,0.1-0.1,0.1-0.1
	c0.1,0,0.1,0,0.1,0.1l0.3,0.7c0,0.1,0.1,0.2,0.1,0.2c0,0.1-0.1,0.2-0.3,0.3c-0.7,0.5-1.6,0.8-2.4,0.8c-2.1,0-3.3-1.6-3.3-4.2
	c0-2.8,1.3-4.6,3.5-4.6c0.7,0,1.5,0.2,2.1,0.7c0.3,0.2,0.4,0.3,0.4,0.4l0,0.1L86,11.9 M62.1,12.8c0-1,0-2.6-2.2-2.6
	c-0.9,0-1.6,0.6-2,1.3c-0.3-0.9-0.9-1.3-1.8-1.3c-0.8,0-1.7,0.4-2,1.2v-0.7c0-0.2-0.1-0.3-0.3-0.3H53c-0.1,0-0.3,0.1-0.3,0.3v7.8
	c0,0.2,0.1,0.3,0.3,0.3h0.8c0.1,0,0.3-0.1,0.3-0.3l0-5.5c0-1.3,1-1.7,1.6-1.7c0.9,0,1.1,0.8,1.1,1.4v5.8c0,0.1,0.2,0.2,0.3,0.2h0.7
	c0.2,0,0.3-0.1,0.3-0.2v-5.6c0-1.3,1-1.6,1.6-1.6c1,0,1.1,0.8,1.1,1.4l0,5.8c0,0.1,0.1,0.2,0.2,0.2v0l0.8,0c0.2,0,0.3-0.1,0.3-0.2
	l0-1.6L62.1,12.8 M63.9,17.5c0.2,0.4,0.8,1.3,2.1,1.3c1.2,0,1.9-0.4,2.2-1.2v0.7c0,0.1,0.1,0.3,0.3,0.3h0.8c0.1,0,0.3-0.1,0.3-0.3
	v-7.8c0-0.2-0.1-0.3-0.3-0.3h-0.8c-0.1,0-0.3,0.1-0.3,0.3V16c0,1.3-1.2,1.7-2.1,1.7c-0.9,0-1.1-0.8-1.1-1.4l0-5.8
	c0-0.1-0.1-0.2-0.3-0.2H64c-0.1,0-0.3,0.1-0.3,0.2V16C63.7,16,63.7,17,63.9,17.5 M78.8,6.9h-0.9c-0.2,0-0.2,0-0.2,0.2v0.1l0,0.7V8
	c0,0.2,0,0.2,0.2,0.2h0.9c0.2,0,0.2,0,0.2-0.2V7.9l0-0.7V7.1C79,6.9,78.9,6.9,78.8,6.9"/>
</svg>
