<svg width="87" height="26" viewBox="0 0 87 26" xmlns="http://www.w3.org/2000/svg">
  <g fill="none" fill-rule="evenodd">
    <path d="M31.59 21.716c-2.858 2.128-7.014 3.262-10.59 3.264-5.013.005-9.524-1.852-12.944-4.953-.268-.243-.028-.576.295-.386 3.686 2.15 8.241 3.447 12.95 3.443 3.173-.002 6.665-.67 9.874-2.04.485-.207.892.322.416.672" fill="#F78D11"/>
    <path d="M32.786 20.346c-.369-.467-2.424-.22-3.347-.106-.282.033-.325-.213-.072-.39 1.64-1.16 4.327-.828 4.64-.44.313.39-.081 3.097-1.618 4.393-.237.198-.46.088-.356-.169.345-.87 1.12-2.815.753-3.288" fill="#F78D11"/>
    <path d="M29.497 11.67l-.001-1.124c0-.17.13-.287.282-.287l5.017-.004c.16 0 .289.12.29.286v.962c0 .163-.136.373-.379.709l-2.593 3.731c.967-.024 1.984.121 2.86.618.2.11.255.276.267.44l.001 1.198c0 .166-.18.355-.37.256-1.542-.81-3.592-.9-5.3.014-.173.094-.355-.092-.355-.26l-.001-1.142c0-.182.002-.492.185-.772l3.007-4.343-2.62.002a.278.278 0 0 1-.29-.284m-18.291 7.04l-1.527.001a.287.287 0 0 1-.274-.256L9.4 10.582c0-.157.129-.284.293-.284h1.421c.15.006.27.119.277.262l.001 1.027h.03c.37-.994 1.068-1.458 2.006-1.459.956 0 1.555.463 1.982 1.456.37-.994 1.21-1.458 2.107-1.459.643 0 1.342.262 1.769.861.482.663.387 1.621.387 2.465v4.97a.284.284 0 0 1-.293.283l-1.525.001a.286.286 0 0 1-.272-.283l-.003-4.17c0-.334.026-1.162-.045-1.477-.116-.529-.456-.678-.899-.678-.37 0-.756.25-.911.647-.157.397-.14 1.058-.14 1.509l.004 4.17a.29.29 0 0 1-.296.284l-1.524.002a.287.287 0 0 1-.275-.284l-.006-4.17c0-.881.142-2.172-.94-2.171-1.095 0-1.054 1.258-1.053 2.172l.003 4.17c0 .16-.13.284-.293.284m28.213-6.997c-1.127 0-1.195 1.542-1.194 2.505 0 .959-.01 3.016 1.185 3.016 1.18-.001 1.237-1.66 1.236-2.671 0-.664-.029-1.458-.228-2.089-.174-.545-.513-.761-1-.761m-.014-1.605c2.263-.002 3.49 1.952 3.493 4.435.002 2.404-1.35 4.31-3.486 4.31-2.22.002-3.434-1.95-3.436-4.385-.002-2.453 1.22-4.358 3.429-4.36m6.435 8.575l-1.521.002a.287.287 0 0 1-.275-.284l-.008-7.874a.29.29 0 0 1 .293-.255l1.414-.002a.29.29 0 0 1 .273.219v1.205h.028c.428-1.079 1.024-1.592 2.08-1.592.682-.001 1.355.246 1.781.922.4.633.401 1.693.402 2.455l.004 4.954a.29.29 0 0 1-.295.247l-1.53.002a.287.287 0 0 1-.27-.248l-.003-4.275c0-.862.099-2.12-.956-2.12-.371 0-.713.25-.883.63-.213.481-.241.962-.24 1.492l.003 4.239a.293.293 0 0 1-.297.283m-20.622-2.114c-.243.43-.625.696-1.053.697-.588 0-.93-.447-.93-1.114-.002-1.302 1.162-1.545 2.268-1.546v.334c0 .6.015 1.096-.285 1.629m3.003.685c-.28-.386-.576-.7-.576-1.422l-.002-2.388c-.001-1.013.073-1.942-.671-2.64-.587-.563-1.56-.762-2.302-.762-1.45.002-3.072.55-3.41 2.349-.038.195.104.295.23.325l1.477.158c.138-.008.24-.144.264-.283.13-.62.644-.92 1.228-.92.312 0 .668.116.856.397.217.315.186.748.186 1.11v.2c-.884.101-2.04.167-2.868.535-.956.417-1.628 1.264-1.627 2.508.001 1.595 1 2.39 2.285 2.39 1.087-.002 1.68-.26 2.517-1.119.276.403.37.6.876 1.021.114.064.26.058.36-.036l.003.004c.306-.27.858-.757 1.172-1.02.122-.101.097-.267.002-.407m-23.006-.67c-.244.432-.63.697-1.057.697-.586 0-.928-.446-.929-1.114 0-1.302 1.163-1.544 2.27-1.545v.334c0 .6.013 1.096-.284 1.628m3.002.685c-.281-.386-.577-.7-.577-1.421l-.002-2.389c0-1.013.069-1.942-.676-2.64-.582-.563-1.554-.762-2.297-.76-1.452 0-3.071.548-3.41 2.347-.036.196.103.296.226.326l1.482.157c.137-.008.237-.144.263-.283.126-.619.645-.92 1.228-.92.313 0 .67.116.855.397.215.315.188.749.188 1.112v.199c-.885.1-2.04.167-2.87.535C1.672 14.345 1 15.192 1 16.437c.001 1.595 1.002 2.39 2.284 2.389 1.089-.001 1.68-.26 2.517-1.118.277.403.367.6.876 1.021a.304.304 0 0 0 .36-.036l.004.003c.302-.27.859-.757 1.17-1.02.124-.1.1-.267.004-.407" fill="#000"/>
    <path fill="#F78D11" d="M60.02 8.133l-7.287.005-.001-1.281 7.287-.006zm-.001-1.923l-7.288.006V4.935l7.287-.006zm-.001-1.921l-7.288.005-.001-1.28 7.287-.007zm-.002-1.922l-7.288.005V1.091l7.287-.006zm7.924 5.759l-7.288.006-.001-1.281 7.288-.006zm-.002-1.922l-7.288.006V4.93l7.287-.006zm7.93 1.916l-7.288.006-.001-1.281 7.288-.006zm-.002-1.922l-7.288.006V4.923l7.287-.006zm-.001-1.922l-7.288.006L68.576 3l7.288-.006z"/>
    <path d="M71.137 17.044c.018-.033.07-.068.105-.068a.54.54 0 0 1 .138.035c.762.376 1.525.58 2.114.58.833 0 1.386-.498 1.385-1.234 0-.582-.295-.924-1.11-1.3-1.161-.53-1.525-.718-1.942-1.061-.536-.428-.797-.959-.798-1.627 0-1.387 1.09-2.381 2.633-2.382.9-.001 2.235.427 2.235.718 0 .034 0 .034-.034.12l-.311.634c-.035.051-.104.102-.157.102-.034 0-.07-.017-.138-.034-.66-.308-1.161-.444-1.629-.443-.832 0-1.317.429-1.316 1.147 0 .326.122.634.347.84.243.222.243.222 1.82.974 1.283.615 1.733 1.18 1.734 2.208 0 1.456-1.107 2.433-2.752 2.435-.867 0-1.855-.256-2.564-.667-.088-.051-.105-.085-.105-.153 0-.035 0-.035.017-.07l.328-.754m6.535-6.468c0-.174.011-.209.184-.209h.918c.156 0 .192.034.192.208v7.808c0 .174-.134.3-.29.3h-.732c-.156 0-.272-.135-.272-.31v-7.797m8.358 1.296c-.052.087-.086.122-.138.122-.035 0-.087-.018-.139-.07-.85-.622-1.195-.779-1.785-.778-1.386 0-2.095 1.093-2.094 3.224.002 2.166.644 3.24 1.926 3.24.693-.001 1.056-.158 2.043-.852.053-.035.087-.052.122-.052.052 0 .086.035.122.105l.26.657c.016.052.052.156.052.173 0 .087-.087.19-.277.33a4.166 4.166 0 0 1-2.426.816c-2.06.001-3.274-1.574-3.276-4.208-.002-2.841 1.33-4.592 3.512-4.594.745 0 1.474.224 2.114.675.279.19.382.31.382.432l-.017.104-.38.676m-23.893.901c-.001-.981-.002-2.648-2.23-2.646-.87 0-1.627.593-2.005 1.325-.27-.95-.854-1.323-1.834-1.322-.803 0-1.664.42-2.027 1.153v-.676a.283.283 0 0 0-.274-.28h-.77a.288.288 0 0 0-.292.255v7.828c0 .152.13.272.283.282h.77a.29.29 0 0 0 .292-.256l-.004-5.501c-.001-1.309.964-1.683 1.58-1.683.931-.001 1.102.758 1.131 1.378v5.836c0 .149.154.225.31.234h.744c.153 0 .272-.116.285-.234v-5.571c.018-1.276.964-1.646 1.575-1.646.95-.001 1.108.791 1.133 1.418l.005 5.792c0 .112.101.2.23.224v.01l.81-.001c.154 0 .28-.094.292-.212l-.001-1.57-.003-4.137m1.745 4.68c.162.435.79 1.324 2.058 1.323 1.188-.001 1.879-.421 2.236-1.154v.676c0 .15.117.272.269.281h.757a.28.28 0 0 0 .282-.255v-7.828a.285.285 0 0 0-.273-.282h-.758a.275.275 0 0 0-.277.255v5.501c0 1.309-1.224 1.68-2.055 1.684-.917.004-1.083-.759-1.113-1.379l-.005-5.835c-.027-.126-.147-.226-.299-.234h-.734c-.149 0-.271.094-.284.212v5.593s.034 1.009.196 1.442M78.771 6.885h-.918c-.172 0-.19.032-.19.188v.134l.001.664v.127c0 .156.035.187.19.187h.92c.172 0 .19-.032.19-.188v-.135l-.001-.662v-.128c0-.156-.035-.187-.192-.187" fill="#000"/>
  </g>
</svg>
