<svg width="80" height="20" viewBox="0 0 80 20" xmlns="http://www.w3.org/2000/svg">
  <g fill="none" fill-rule="evenodd">
    <path d="M31.382 1.261h3.875c3.9 0 4.268 1.365 4.268 6.421v5.168c0 4.454-.895 5.795-4.698 5.795h-3.445V1.26zm2.348 15.36h1.214c1.782 0 2.074-.938 2.074-3.924v-5.97c0-2.577-.22-3.444-2.266-3.444H33.73v13.339zm6.734-15.36h6.578v2.066h-4.229v5.451h3.915v2.037h-3.915v5.764h4.229v2.066h-6.578zm7.518 0h6.577v2.066H50.33v5.451h3.915v2.037H50.33v5.764h4.228v2.066h-6.577zm16.129 0h6.578v2.066H66.46v5.451h3.916v2.037H66.46v5.764h4.23v2.066h-6.58zm-8.613 15.347L60.91 3.297h-5.412V1.26h7.673v2.036l-5.318 13.311h5.318v2.037l-7.673-.001zM71.629 1.261h3.758c3.516 0 3.762.896 3.762 4.7 0 2.334-.22 3.476-2.195 4.078 1.637.168 2.198 1.022 2.198 2.659v3.78c0 .627.004 1.443.151 2.166h-2.349c-.242-.434-.155-.861-.155-1.56V13.16c0-1.637-.311-2.033-1.9-2.033h-.92v7.518l-2.35-.001V1.26zm2.35 7.673h.728c1.902 0 2.192-.235 2.192-2.834 0-2.577-.23-2.805-1.722-2.805h-1.199v5.639z" fill="#231F1F"/>
    <path fill="#ED1C24" d="M1 18.645h5.168v-1.567H1zm0-2.036h5.168v-1.566H1zm0-2.036h5.168v-1.566H1z"/>
    <path fill="#F7836C" d="M1 12.537h5.168v-1.565H1zm0-2.036h5.168V8.935H1z"/>
    <path fill="#FFF200" d="M6.794 18.645h5.169v-1.567H6.794zm0-2.036h5.169v-1.566H6.794zm0-2.036h5.169v-1.566H6.794z"/>
    <path fill="#EC008C" d="M12.59 18.645h5.167v-1.567H12.59zm-.001-2.036h5.168v-1.566H12.59zm0-2.036h5.168v-1.566H12.59z"/>
    <path fill="#F780C5" d="M12.589 12.537h5.168v-1.566H12.59zm0-2.036h5.168V8.935H12.59zm0-2.036h5.168V6.9H12.59zm0-2.035h5.168V4.863H12.59z"/>
    <path fill="#B2DB18" d="M18.384 18.645h5.167v-1.567h-5.167zm0-2.036h5.168v-1.566h-5.168zm0-2.036h5.168v-1.566h-5.168z"/>
    <path fill="#D9ED84" d="M18.384 12.537h5.168v-1.566h-5.168zm0-2.036h5.168V8.935h-5.168z"/>
    <path fill="#59CAF6" d="M24.178 18.645h5.168v-1.567h-5.168zm0-2.036h5.169v-1.566h-5.169zm0-2.037h5.169v-1.566h-5.169z"/>
    <path fill="#B2E6FA" d="M24.178 12.537h5.169v-1.566h-5.169zm0-2.036h5.169V8.935h-5.169zm0-2.036h5.169V6.899h-5.169zm0-2.036h5.169V4.863h-5.169zm0-2.036h5.169V2.827h-5.169z"/>
  </g>
</svg>
