<?xml version="1.0" encoding="utf-8"?>
<!-- Generator: Adobe Illustrator 23.0.1, SVG Export Plug-In . SVG Version: 6.00 Build 0)  -->
<svg version="1.1" id="Layer_1" xmlns="http://www.w3.org/2000/svg" xmlns:xlink="http://www.w3.org/1999/xlink" x="0px" y="0px"
	 viewBox="0 0 136 27" style="enable-background:new 0 0 136 27;" xml:space="preserve">
<style type="text/css">
	.st0{clip-path:url(#SVGID_2_);}
	.st1{fill:#999999;}
	.st2{clip-path:url(#SVGID_4_);}
</style>
<g>
	<defs>
		<path id="SVGID_1_" d="M127.6,18.5c-1.1,0-2.1-0.4-2.8-1.2c-0.7-0.8-1.1-1.9-1.1-3c0-1.1,0.4-2.2,1.1-3c0.7-0.8,1.7-1.3,2.8-1.3
			c0.8,0,1.5,0.2,2.1,0.6c0.6,0.4,1,1,1.3,1.7l-1.3,0.6c-0.3-0.9-1.2-1.5-2.1-1.5c-0.6,0-1.3,0.3-1.7,0.8c-0.5,0.6-0.7,1.3-0.7,2.1
			c0,0.8,0.2,1.5,0.7,2.1c0.4,0.5,1,0.8,1.7,0.8c1,0.1,1.9-0.6,2.2-1.5l1.3,0.6c-0.3,0.6-0.7,1.2-1.3,1.6
			C129.2,18.3,128.4,18.5,127.6,18.5z M122.3,18.2h-1.4v-7.9h1.4V18.2z M122.3,8.3c-0.4,0.4-1,0.4-1.4,0c0,0,0,0,0,0
			c-0.2-0.2-0.3-0.5-0.3-0.8c0-0.3,0.1-0.6,0.3-0.8c0.4-0.4,1-0.4,1.4,0c0,0,0,0,0,0c0.2,0.2,0.3,0.5,0.3,0.8
			C122.7,7.8,122.6,8.1,122.3,8.3z M116.6,18.5c-0.8,0-1.5-0.2-2.1-0.7c-0.5-0.4-1-1-1.2-1.6l1.3-0.5c0.3,0.9,1.1,1.5,2.1,1.5
			c0.4,0,0.8-0.1,1.1-0.3c0.3-0.2,0.4-0.5,0.4-0.8c0-0.5-0.3-0.9-1-1l-1.5-0.4c-0.5-0.1-1-0.4-1.4-0.7c-0.4-0.4-0.7-0.9-0.7-1.5
			c0-0.7,0.3-1.3,0.9-1.7c0.6-0.5,1.3-0.7,2.1-0.8c0.6,0,1.3,0.2,1.8,0.5c0.5,0.3,0.9,0.8,1.1,1.4l-1.2,0.5c-0.3-0.7-1-1.1-1.7-1
			c-0.4,0-0.7,0.1-1.1,0.3c-0.3,0.2-0.4,0.4-0.4,0.8c0,0.4,0.3,0.8,1,0.9l1.5,0.4c0.6,0.1,1.2,0.4,1.6,0.9c0.3,0.4,0.5,0.9,0.5,1.4
			c0,0.7-0.3,1.4-0.8,1.8C118.2,18.3,117.4,18.5,116.6,18.5z M112.2,18.2h-1.4v-1.1h-0.1c-0.2,0.4-0.6,0.8-1,1
			c-0.4,0.3-0.9,0.4-1.4,0.4c-0.8,0.1-1.6-0.3-2.2-0.9c-0.5-0.7-0.8-1.6-0.7-2.4v-4.9h1.4v4.6c0,1.5,0.6,2.2,1.9,2.2
			c0.6,0,1.1-0.3,1.4-0.8c0.4-0.5,0.6-1.1,0.6-1.7v-4.4h1.4L112.2,18.2z M93,18.2V6.6h1.4l3.9,7.1h0.1l3.9-7.1h1.4v11.6h-1.4v-6.9
			l0.1-1.9h-0.1l-3.5,6.4h-0.8l-3.5-6.4h-0.1l0.1,1.9v6.9L93,18.2z"/>
	</defs>
	<use xlink:href="#SVGID_1_"  style="overflow:visible;fill:#999999;"/>
	<clipPath id="SVGID_2_">
		<use xlink:href="#SVGID_1_"  style="overflow:visible;"/>
	</clipPath>
	<g class="st0">
		<path class="st1" d="M88,1.5h48v22H88V1.5z"/>
	</g>
</g>
<g>
	<defs>
		<path id="SVGID_3_" d="M70.3,17.9h1.8V5.4h-1.9L70.3,17.9z M87,9.9l-2.1,5.4h-0.1l-2.2-5.5h-2l3.3,7.6L82,21.6h1.9L89,9.8L87,9.9z
			 M76.5,16.4c-0.6,0-1.4-0.3-1.4-1.1c0-1,1-1.3,2-1.3c0.6,0,1.2,0.1,1.7,0.4C78.6,15.6,77.6,16.4,76.5,16.4z M76.7,9.6
			c-1.4-0.1-2.7,0.7-3.3,1.9l1.6,0.7c0.3-0.6,1-1,1.7-0.9c1-0.1,1.9,0.6,1.9,1.6c0,0,0,0,0,0V13c-0.6-0.3-1.3-0.5-1.9-0.5
			c-1.8,0-3.6,1-3.6,2.8c0.1,1.6,1.4,2.8,3,2.8c0,0,0.1,0,0.1,0c1,0.1,1.9-0.4,2.4-1.2h0.1v1h1.8V13C80.4,10.8,78.8,9.6,76.7,9.6z
			 M65.3,11.4h-2.6V7.1h2.6c1.2,0,2.2,1,2.2,2.1C67.4,10.4,66.4,11.4,65.3,11.4C65.3,11.4,65.3,11.4,65.3,11.4z M65.3,5.4h-4.5v12.5
			h1.8v-4.7h2.6c2.2,0.1,4-1.7,4-3.8c0,0,0-0.1,0-0.1C69.2,7.1,67.4,5.3,65.3,5.4C65.2,5.4,65.2,5.4,65.3,5.4L65.3,5.4z M41.1,16.5
			c-1.3-0.1-2.4-1.2-2.3-2.5c0,0,0,0,0,0c-0.1-1.4,0.9-2.5,2.3-2.6c0,0,0,0,0,0c1.3,0.1,2.3,1.2,2.2,2.5c0,0,0,0,0,0.1
			c0.1,1.3-0.8,2.4-2.1,2.6C41.1,16.5,41.1,16.5,41.1,16.5z M43.2,10.6L43.2,10.6c-0.6-0.6-1.4-1-2.3-1c-2.3,0.1-4,2-4,4.3
			c0,2.3,1.8,4.2,4,4.2c0.9,0,1.7-0.4,2.2-1h0.1v0.6c0,1.6-0.9,2.5-2.2,2.5c-0.9,0-1.8-0.6-2.1-1.5l-1.6,0.7C37.9,21,39.3,22,41,22
			c2.2,0,4-1.3,4-4.5V9.9h-1.8V10.6z M46.2,17.9H48l0-12.5h-1.8L46.2,17.9z M50.7,13.8c-0.1-1.3,0.9-2.4,2.2-2.5c0,0,0.1,0,0.1,0
			c0.7,0,1.3,0.3,1.6,0.9L50.7,13.8z M56.5,12.3c-0.5-1.6-1.9-2.7-3.6-2.7c-2.2,0-4,1.8-4,4c0,0.1,0,0.2,0,0.3
			c-0.1,2.3,1.7,4.2,4,4.2c0.1,0,0.1,0,0.2,0c1.4,0,2.7-0.7,3.5-1.9l-1.4-1c-0.4,0.7-1.2,1.2-2.1,1.2c-0.9,0-1.6-0.5-2-1.3l5.6-2.4
			L56.5,12.3z M11.6,11v1.8h4.3c-0.1,0.9-0.4,1.7-1,2.3c-0.9,0.9-2.1,1.4-3.3,1.3c-2.6,0-4.7-2.1-4.7-4.7c0,0,0,0,0-0.1
			c0-2.6,2-4.8,4.6-4.8c0,0,0,0,0.1,0c1.2,0,2.4,0.5,3.2,1.3l1.3-1.3C14.9,5.6,13.3,5,11.6,5C8,5,5,8,5,11.6c0,3.7,3,6.6,6.6,6.6
			c1.7,0.1,3.4-0.6,4.6-1.9c1-1.2,1.6-2.7,1.5-4.2c0-0.4,0-0.8-0.1-1.1H11.6L11.6,11z M22.6,16.5c-1.4,0-2.4-1.2-2.4-2.5
			c0,0,0,0,0-0.1c-0.1-1.3,0.8-2.5,2.2-2.6s2.5,0.8,2.6,2.2c0,0.1,0,0.3,0,0.4C25.1,15.3,24.1,16.4,22.6,16.5
			C22.7,16.5,22.7,16.5,22.6,16.5L22.6,16.5z M22.6,9.7c-2.3,0-4.2,1.8-4.3,4.1c0,0.1,0,0.2,0,0.2c-0.1,2.3,1.7,4.3,4,4.4
			c2.3,0.1,4.3-1.7,4.4-4c0-0.1,0-0.3,0-0.4c0.1-2.3-1.8-4.2-4.1-4.3C22.7,9.7,22.7,9.7,22.6,9.7L22.6,9.7z M31.9,16.5
			c-1.4,0-2.4-1.2-2.4-2.5c0,0,0,0,0-0.1c-0.1-1.3,0.8-2.5,2.2-2.6c1.3-0.1,2.5,0.8,2.6,2.2c0,0.1,0,0.3,0,0.4
			C34.4,15.3,33.3,16.4,31.9,16.5C31.9,16.5,31.9,16.5,31.9,16.5L31.9,16.5z M31.9,9.6c-2.3-0.1-4.2,1.8-4.3,4.1c0,0.1,0,0.2,0,0.3
			c-0.1,2.3,1.7,4.3,4,4.4c2.3,0.1,4.3-1.7,4.4-4c0-0.1,0-0.3,0-0.4c0.1-2.3-1.7-4.2-4.1-4.3C32,9.7,31.9,9.7,31.9,9.6L31.9,9.6z"/>
	</defs>
	<use xlink:href="#SVGID_3_"  style="overflow:visible;"/>
	<clipPath id="SVGID_4_">
		<use xlink:href="#SVGID_3_"  style="overflow:visible;"/>
	</clipPath>
	<g class="st2">
		<path d="M0,0h94v27H0V0z"/>
	</g>
</g>
</svg>
