<svg xmlns="http://www.w3.org/2000/svg" width="136" height="27" viewBox="0 0 136 27">
  <defs>
    <clipPath id="a" transform="translate(5 3)">
      <path d="M122.61 15.48a3.62 3.62 0 0 1-2.81-1.21 4.32 4.32 0 0 1-1.1-3 4.32 4.32 0 0 1 1.1-3A3.64 3.64 0 0 1 122.61 7a3.38 3.38 0 0 1 2.11.65A3.75 3.75 0 0 1 126 9.31l-1.3.57a2.13 2.13 0 0 0-2.12-1.49 2.17 2.17 0 0 0-1.66.8 3 3 0 0 0-.72 2.06 3 3 0 0 0 .72 2.06 2.17 2.17 0 0 0 1.66.8 2.21 2.21 0 0 0 2.21-1.49l1.27.57a3.77 3.77 0 0 1-1.25 1.63 3.43 3.43 0 0 1-2.2.66zm-5.26-.26h-1.43V7.29h1.43zm0-9.93a1 1 0 0 1-1.44 0 1 1 0 0 1-.3-.75 1 1 0 0 1 .3-.75 1 1 0 0 1 1.44 0 1 1 0 0 1 .3.75 1 1 0 0 1-.3.75zm-5.71 10.19a3.32 3.32 0 0 1-2.1-.65 3.76 3.76 0 0 1-1.22-1.62l1.27-.54a2.1 2.1 0 0 0 2.06 1.49 1.8 1.8 0 0 0 1.09-.31 1 1 0 0 0 .42-.8q0-.78-1-1l-1.54-.39a3.6 3.6 0 0 1-1.38-.74 1.81 1.81 0 0 1-.65-1.46 2 2 0 0 1 .89-1.71 3.47 3.47 0 0 1 2.09-.75 3.39 3.39 0 0 1 1.8.48 2.69 2.69 0 0 1 1.13 1.37l-1.24.53a1.67 1.67 0 0 0-1.74-1 2 2 0 0 0-1.07.27.85.85 0 0 0-.43.75c0 .45.34.76 1 .92l1.5.38a2.77 2.77 0 0 1 1.59.89 2.18 2.18 0 0 1 .51 1.43 2.23 2.23 0 0 1-.84 1.79 3.17 3.17 0 0 1-2.14.67zm-4.48-.26h-1.37v-1.1h-.06a2.7 2.7 0 0 1-1 1 2.79 2.79 0 0 1-1.42.4 2.59 2.59 0 0 1-2.16-.91 3.72 3.72 0 0 1-.73-2.44V7.28h1.43v4.61c0 1.48.62 2.22 1.87 2.22a1.7 1.7 0 0 0 1.44-.75 2.76 2.76 0 0 0 .56-1.71V7.26h1.43zm-19.16 0V3.62h1.43l3.86 7.06h.06l3.86-7.06h1.43v11.6h-1.43V8.34l.06-1.94h-.06l-3.48 6.36h-.84l-3.47-6.37h-.06l.06 1.94v6.88z" fill="none"/>
    </clipPath>
    <clipPath id="b" transform="translate(5 3)">
      <path d="M65.3 14.88h1.85V2.36h-1.88zm16.65-8l-2.11 5.44h-.06l-2.21-5.49h-2l3.3 7.59L77 18.65h1.93L84 6.82zm-10.48 6.56c-.61 0-1.45-.3-1.45-1.06 0-1 1-1.34 2-1.34a3.33 3.33 0 0 1 1.7.42 2.27 2.27 0 0 1-2.25 1.98zm.21-6.86a3.45 3.45 0 0 0-3.29 1.92l1.61.69a1.76 1.76 0 0 1 1.7-.92 1.78 1.78 0 0 1 1.95 1.61V10a4.11 4.11 0 0 0-1.93-.48c-1.77 0-3.57 1-3.57 2.82a2.87 2.87 0 0 0 3.08 2.75 2.59 2.59 0 0 0 2.36-1.22h.06v1h1.78V10c0-2.2-1.63-3.42-3.75-3.42zM60.25 8.39h-2.63v-4.3h2.63a2.15 2.15 0 1 1 0 4.3zm0-6h-4.48v12.52h1.85v-4.75h2.58a3.94 3.94 0 0 0 4.05-3.91 3.94 3.94 0 0 0-4.05-3.88zM36.06 13.5a2.44 2.44 0 0 1-2.34-2.57 2.45 2.45 0 0 1 2.34-2.6 2.39 2.39 0 0 1 2.24 2.6 2.36 2.36 0 0 1-2.24 2.57zm2.12-5.89h-.06a2.88 2.88 0 0 0-2.22-1 4.21 4.21 0 0 0-4 4.29 4.2 4.2 0 0 0 4.05 4.24 2.85 2.85 0 0 0 2.22-1h.06v.62c0 1.63-.86 2.5-2.24 2.5a2.32 2.32 0 0 1-2.12-1.51l-1.61.68A4 4 0 0 0 36 19c2.17 0 4-1.3 4-4.45V6.89h-1.82zm3 7.3h1.85L43 2.39h-1.8zm4.56-4.14A2.32 2.32 0 0 1 48 8.29a1.6 1.6 0 0 1 1.56.91zm5.75-1.43a3.91 3.91 0 0 0-3.6-2.71 4 4 0 0 0-4 4.28 4.14 4.14 0 0 0 4.19 4.25 4.19 4.19 0 0 0 3.52-1.89l-1.43-1a2.4 2.4 0 0 1-2.07 1.17 2.17 2.17 0 0 1-2-1.29l5.64-2.37zM6.65 8v1.8h4.28a3.82 3.82 0 0 1-1 2.28 4.35 4.35 0 0 1-3.3 1.32 4.72 4.72 0 0 1-4.7-4.79A4.72 4.72 0 0 1 6.62 3.8a4.59 4.59 0 0 1 3.23 1.29l1.26-1.27A6.16 6.16 0 0 0 6.62 2 6.67 6.67 0 0 0 0 8.63a6.67 6.67 0 0 0 6.65 6.61 5.91 5.91 0 0 0 4.56-1.87 5.93 5.93 0 0 0 1.53-4.22 6.19 6.19 0 0 0-.1-1.15h-6zm11 5.51a2.46 2.46 0 0 1-2.38-2.59 2.39 2.39 0 1 1 4.76 0 2.46 2.46 0 0 1-2.4 2.61zm0-6.84A4.17 4.17 0 0 0 13.4 11a4.23 4.23 0 1 0 8.45 0 4.19 4.19 0 0 0-4.23-4.31zm9.24 6.82a2.46 2.46 0 0 1-2.38-2.59 2.39 2.39 0 1 1 4.76 0 2.46 2.46 0 0 1-2.41 2.61zm0-6.84A4.17 4.17 0 0 0 22.63 11a4.23 4.23 0 1 0 8.45 0 4.19 4.19 0 0 0-4.24-4.32z" fill="none"/>
    </clipPath>
  </defs>
  <g clip-path="url(#a)">
    <path fill="#ff6335" d="M88 1.48h48v22H88z"/>
  </g>
  <g clip-path="url(#b)">
    <path fill="#898989" d="M0 0h94v27H0z"/>
  </g>
</svg>
