<svg width="123" height="18" viewBox="0 0 123 18" xmlns="http://www.w3.org/2000/svg">
  <g fill="none" fill-rule="evenodd">
    <path d="M20.783 6.589c0 1.638-.91 3.253-2.705 4.8a.422.422 0 0 1-.588-.034.397.397 0 0 1 .036-.572c1.609-1.386 2.425-2.798 2.425-4.194v-.02c0-1.133-.731-2.467-1.665-3.036a.398.398 0 0 1-.13-.559.424.424 0 0 1 .573-.128c1.17.715 2.054 2.316 2.054 3.723v.02zm-5.405 3.418a.419.419 0 0 1-.567-.155.4.4 0 0 1 .16-.551c.964-.526 1.613-1.546 1.615-2.543a2.451 2.451 0 0 0-1.355-2.176.4.4 0 0 1-.175-.547.423.423 0 0 1 .562-.17c1.108.567 1.796 1.672 1.801 2.888v.012c-.005 1.278-.824 2.58-2.041 3.242zm-3.344-1.19c-.998 0-1.806-.787-1.806-1.758S11.036 5.3 12.034 5.3s1.806.787 1.806 1.758c0 .97-.808 1.758-1.806 1.758zM9.257 9.852a.422.422 0 0 1-.567.155c-1.217-.662-2.036-1.964-2.041-3.242v-.012c.005-1.216.693-2.321 1.8-2.888a.423.423 0 0 1 .563.17.4.4 0 0 1-.175.547 2.451 2.451 0 0 0-1.355 2.176c.002.997.65 2.017 1.615 2.543a.399.399 0 0 1 .16.55zm-2.68 1.503a.422.422 0 0 1-.588.035C4.196 9.842 3.286 8.227 3.286 6.589v-.02c0-1.407.883-3.008 2.054-3.723a.424.424 0 0 1 .574.128.4.4 0 0 1-.131.559c-.934.569-1.664 1.903-1.664 3.036v.02c0 1.396.815 2.808 2.424 4.194a.397.397 0 0 1 .036.572zM17.058 1a6.131 6.131 0 0 0-5.023 2.642A6.132 6.132 0 0 0 7.01 1C3.69 1 1 3.617 1 6.846c0 2.05 1.334 3.527 2.728 4.894l5.45 5.011c.285.263.755.066.755-.316V12.53c0-1.13.94-2.045 2.101-2.047 1.16.002 2.101.918 2.101 2.047v3.905c0 .382.47.579.756.316l5.45-5.011c1.393-1.367 2.727-2.844 2.727-4.894 0-3.229-2.69-5.846-6.01-5.846z" fill="#C6002B"/>
    <path d="M78.732 10.206c1.634 0 2.801-.817 2.801-2.179v-.03c0-1.302-1.027-2.09-2.786-2.09h-3.361v4.3h3.346zm-4.575-4.798c0-.333.279-.606.605-.606h4.079c1.338 0 2.411.394 3.096 1.06.53.515.841 1.257.841 2.089v.03c0 1.741-1.214 2.755-2.91 3.074l2.708 3.39c.125.137.202.273.202.44 0 .317-.311.59-.622.59-.25 0-.437-.136-.577-.318l-3.066-3.875h-3.127v3.588c0 .332-.28.605-.624.605a.612.612 0 0 1-.605-.605V5.408zm17.677 6.1L89.328 6.09l-2.505 5.42h5.011zm-7.704 3.104l4.42-9.4c.155-.334.39-.531.778-.531h.063c.373 0 .623.197.762.53l4.42 9.385a.83.83 0 0 1 .078.304.583.583 0 0 1-.591.575c-.296 0-.499-.197-.607-.439l-1.137-2.438H86.34l-1.137 2.468c-.107.257-.31.41-.591.41a.552.552 0 0 1-.56-.546.68.68 0 0 1 .078-.318zm16.045-.317c2.754 0 4.513-1.817 4.513-4.165v-.029c0-2.347-1.759-4.193-4.513-4.193h-2.553v8.387h2.553zm-3.782-8.887c0-.333.28-.606.607-.606h3.175c3.423 0 5.788 2.286 5.788 5.269v.03c0 2.982-2.365 5.298-5.788 5.298H97a.613.613 0 0 1-.607-.605V5.408zm11.669-.077a.616.616 0 0 1 1.23 0v9.539a.616.616 0 0 1-1.23 0V5.33m13.167 4.8v-.029c0-2.407-1.806-4.376-4.297-4.376-2.49 0-4.263 1.939-4.263 4.346v.03c0 2.407 1.804 4.375 4.295 4.375 2.49 0 4.265-1.938 4.265-4.346zm-9.837 0v-.029c0-2.922 2.257-5.48 5.572-5.48s5.54 2.528 5.54 5.45v.03c0 2.921-2.257 5.48-5.572 5.48-3.314 0-5.54-2.529-5.54-5.45z" fill="#909295"/>
    <path fill="#111820" d="M30.44 4.668h3.058v4.018h3.923V4.668h3.057V15.4H37.42v-4.077h-3.923V15.4h-3.059V4.67m16.721 5.86c0-.886-.662-1.462-1.48-1.462-.789 0-1.412.593-1.482 1.463h2.962zm-5.799.761v-.03c0-2.422 1.78-4.338 4.302-4.338 2.947 0 4.302 2.1 4.302 4.537 0 .184 0 .398-.016.598h-5.704c.237.905.914 1.365 1.844 1.365.71 0 1.276-.261 1.89-.845l1.657 1.334c-.821 1.012-2.003 1.687-3.705 1.687-2.678 0-4.57-1.732-4.57-4.308zm18.674-4.185h2.993v1.67c.49-1.133 1.277-1.869 2.695-1.808v3.066h-.252c-1.56 0-2.443.874-2.443 2.79V15.4h-2.993V7.106m7.558 5.719V9.45h-1.007V7.106h1.007v-2.1h2.995v2.1h1.986v2.345h-1.986v2.807c0 .582.27.826.82.826a2.69 2.69 0 0 0 1.134-.275v2.283c-.535.292-1.244.477-2.08.477-1.795 0-2.869-.768-2.869-2.744m-40.088-8.93c-.878 0-1.59.693-1.59 1.546 0 .854.712 1.546 1.59 1.546.878 0 1.59-.692 1.59-1.546 0-.853-.712-1.546-1.59-1.546m.056 3.82h-.11c-.864 0-1.565.68-1.565 1.52V15.4h3.238V9.236c0-.84-.7-1.521-1.564-1.521m26.845 6.028c-.776.033-1.237-.402-1.237-.924 0-.505.412-.766 1.165-.766h1.707v.09c-.01.341-.153 1.538-1.635 1.6zm4.472-2.511c0-2.576-1.891-4.308-4.57-4.308-1.702 0-2.884.675-3.704 1.687l1.655 1.334c.615-.584 1.182-.845 1.892-.845.919 0 1.59.45 1.835 1.336l.002.063-1.971.008c-2.45.031-3.737.92-3.737 2.602 0 1.62 1.188 2.49 3.232 2.49 1.108 0 1.959-.423 2.53-.999v.8h2.832v-4.058c.001-.027.004-.052.004-.08v-.03z"/>
  </g>
</svg>
