<svg width="88" height="80" viewBox="0 0 88 80" xmlns="http://www.w3.org/2000/svg">
  <g fill="none" fill-rule="evenodd">
    <path d="M7.5 71h-3a4 4 0 0 1-4-4V15a4 4 0 0 1 4-4h3" stroke="#CBCBCB" stroke-linecap="round"/>
    <g fill-rule="nonzero" fill="#000">
      <path d="M23.935 9.536c.011 1.127.403 2.075 1.175 2.842.35.348.743.619 1.176.81l-.14.422c-.048.139-.1.273-.158.405a8.17 8.17 0 0 1-.43.918c-.159.288-.32.558-.483.81-.234.347-.448.647-.64.899-.194.252-.373.45-.536.594-.468.443-.971.677-1.51.701-.362 0-.83-.12-1.403-.36-.516-.228-1.013-.341-1.492-.341-.515 0-1.03.114-1.545.34-.55.24-.994.367-1.333.38-.528.024-1.042-.217-1.545-.72-.35-.324-.761-.84-1.229-1.548-.526-.779-.96-1.684-1.299-2.716A10.124 10.124 0 0 1 12 9.733c0-1.199.245-2.23.737-3.094.386-.695.9-1.244 1.544-1.647a3.999 3.999 0 0 1 2.089-.62c.444 0 .983.132 1.614.396.633.264 1.06.396 1.282.396.105 0 .58-.155 1.422-.468.783-.288 1.427-.407 1.93-.36 1.416.133 2.486.726 3.212 1.781-1.287.816-1.92 1.955-1.895 3.419zM21.723 2.879c.62-.78.93-1.62.93-2.52V.18c0-.06-.006-.12-.017-.18-.433.024-.892.162-1.378.413a3.82 3.82 0 0 0-1.203.954c-.631.757-.947 1.566-.947 2.43v.17c0 .054.005.111.017.171.972.096 1.837-.324 2.598-1.26M36.66 12.743h-.084l-3.564-8.145h-2.8V17.74h2.44V9.229h.113l2.979 6.758h1.71l2.97-6.758h.114v8.51h2.467V4.599h-2.78zM71.515 17.74h2.741V4.598h-2.741zM82.537 6.687c1.626 0 2.486 1.252 2.486 2.6h2.63v-.28c0-2.541-1.94-4.66-5.135-4.66-3.422 0-5.465 2.254-5.465 6.095v1.483c0 3.84 2.024 6.065 5.456 6.065 3.28 0 5.143-2.148 5.143-4.535v-.289h-2.629c0 1.358-.84 2.485-2.466 2.485-1.665 0-2.724-1.185-2.724-3.717v-1.482c0-2.523 1.069-3.765 2.704-3.765M53.491 12.897c0 1.762-1.03 2.734-2.543 2.734-1.522 0-2.552-.963-2.552-2.734V4.598h-2.724v8.684c0 2.802 1.986 4.708 5.276 4.708 3.28 0 5.275-1.906 5.275-4.708V4.598h-2.732v8.299zM65.294 10.086l-1.957-.443c-1.153-.241-1.758-.751-1.758-1.512 0-1.01.823-1.646 2.147-1.646 1.493 0 2.24.856 2.307 1.781h2.552c-.029-2.32-1.966-3.938-4.85-3.938-2.732 0-4.888 1.435-4.888 4.015 0 2.234 1.513 3.273 3.328 3.668l1.938.453c1.305.298 1.966.732 1.966 1.627 0 1.02-.813 1.714-2.335 1.714-1.636 0-2.496-.867-2.571-1.84h-2.629c.039 1.859 1.268 4.025 5.068 4.025 3.196 0 5.172-1.588 5.172-4.17 0-2.387-1.599-3.321-3.49-3.734"/>
    </g>
    <g fill-rule="nonzero" fill="#000">
      <path d="M30.814 74.078c-.51 1.132-.755 1.637-1.412 2.637-.917 1.397-2.21 3.134-3.812 3.15-1.424.013-1.79-.926-3.722-.916-1.932.01-2.335.932-3.758.919-1.602-.015-2.828-1.584-3.745-2.98-2.565-3.904-2.833-8.486-1.252-10.921 1.124-1.73 2.898-2.743 4.566-2.743 1.698 0 2.765.93 4.169.93 1.362 0 2.191-.932 4.155-.932 1.483 0 3.055.81 4.176 2.204-3.67 2.01-3.073 7.25.635 8.652z"/>
      <path d="M24.514 61.661c.713-.915 1.255-2.207 1.058-3.529-1.165.08-2.528.822-3.324 1.788-.722.877-1.318 2.178-1.086 3.442 1.272.04 2.588-.72 3.352-1.701zM37.325 67.873c0 .793-.603 1.433-1.547 1.433-.905 0-1.508-.641-1.49-1.433-.018-.829.585-1.451 1.509-1.451.924 0 1.51.622 1.528 1.45zm-2.96 11.787v-9.223h2.866v9.223h-2.866zm7.712-10.297h-3.413v-2.414h9.768v2.414h-3.47V79.66h-2.886l.001-10.297zM57.54 76.7c0 1.206.038 2.187.075 2.96h-2.49l-.131-1.3h-.057c-.359.565-1.227 1.509-2.886 1.509-1.868 0-3.244-1.17-3.244-4.018v-5.412h2.885v4.96c0 1.34.434 2.15 1.433 2.15.793 0 1.245-.547 1.434-1 .074-.17.093-.395.093-.622V70.44h2.886V76.7h.002zm2.3-3.32c0-1.152-.038-2.132-.075-2.942h2.49l.131 1.264h.058c.376-.584 1.318-1.471 2.847-1.471 1.886 0 3.3 1.244 3.3 3.96v5.47h-2.867v-5.112c0-1.187-.415-1.999-1.451-1.999-.793 0-1.264.548-1.452 1.074a2.05 2.05 0 0 0-.113.717v5.318h-2.866v-6.28h-.002zm13.257 2.584c.094 1.188 1.264 1.754 2.603 1.754.98 0 1.773-.132 2.545-.377l.378 1.942c-.943.377-2.093.584-3.339.584-3.13 0-4.922-1.829-4.922-4.715 0-2.339 1.452-4.921 4.658-4.921 2.98 0 4.111 2.318 4.111 4.601 0 .49-.057.925-.093 1.131h-5.94zM76.473 74c0-.696-.303-1.866-1.622-1.866-1.207 0-1.697 1.093-1.773 1.866h3.395zm4.355 3.15c.53.32 1.622.698 2.47.698.869 0 1.227-.303 1.227-.774 0-.47-.283-.697-1.358-1.056-1.905-.64-2.64-1.678-2.621-2.753 0-1.735 1.47-3.037 3.753-3.037 1.075 0 2.038.246 2.603.529l-.51 1.98c-.415-.226-1.206-.528-1.999-.528-.697 0-1.093.283-1.093.754 0 .434.358.66 1.49 1.056 1.753.603 2.489 1.49 2.508 2.848 0 1.716-1.358 2.998-3.998 2.998-1.206 0-2.283-.283-2.98-.66l.508-2.054z"/>
    </g>
  </g>
</svg>
