<svg width="89" height="18" viewBox="0 0 89 18" xmlns="http://www.w3.org/2000/svg" xmlns:xlink="http://www.w3.org/1999/xlink">
  <defs>
    <path id="a" d="M0 .447V15h11.471V.447H0z"/>
  </defs>
  <g fill="none" fill-rule="evenodd">
    <path d="M57.721 3.083a5.735 5.735 0 1 0 .001 11.47 5.735 5.735 0 0 0 0-11.47m0 2.294a3.445 3.445 0 0 1 3.44 3.441 3.445 3.445 0 0 1-3.44 3.441 3.445 3.445 0 0 1-3.442-3.44 3.445 3.445 0 0 1 3.441-3.442M18.667 12.387a3.573 3.573 0 0 1-3.569-3.569 3.573 3.573 0 0 1 3.569-3.569 3.573 3.573 0 0 1 3.57 3.57 3.573 3.573 0 0 1-3.57 3.568zm3.495-8.948v.933a5.735 5.735 0 1 0 0 8.893v.932h2.114V3.44h-2.114zM77.06 12.387a3.573 3.573 0 0 1-3.57-3.569 3.573 3.573 0 0 1 3.57-3.569 3.573 3.573 0 0 1 3.568 3.57 3.573 3.573 0 0 1-3.569 3.568zm3.493-8.948v.933a5.735 5.735 0 1 0 0 8.893v.932h2.114V3.44h-2.114zM67.213 4.122c-1.23.786-2.295 2.178-2.295 4.647v5.428h2.295V8.77c0-3.568 3.678-3.373 3.678-3.373V3.102s-1.995-.058-3.678 1.02M35.162 4.23a5.71 5.71 0 0 0-3.441-1.147A5.71 5.71 0 0 0 28.28 4.23a5.726 5.726 0 0 0-2.294 4.589v5.379h2.294V8.819a3.446 3.446 0 0 1 3.44-3.442 3.446 3.446 0 0 1 3.442 3.442v5.379h2.295v-5.38a5.727 5.727 0 0 0-2.295-4.588M44.849 12.387a3.573 3.573 0 0 1-3.569-3.569c0-1.967 1.6-3.569 3.569-3.569a3.573 3.573 0 0 1 3.568 3.57c0 1.967-1.6 3.568-3.568 3.568zM49.399 0c-.583 0-1.056.473-1.056 1.057v3.315a5.735 5.735 0 1 0 0 8.893v.932h2.114V0H49.4z" fill="#00A7E0"/>
    <g transform="translate(0 2.636)">
      <mask id="b" fill="#fff">
        <use xlink:href="#a"/>
      </mask>
      <path d="M5.609 9.75a3.573 3.573 0 0 1-3.57-3.568 3.573 3.573 0 0 1 3.57-3.569 3.573 3.573 0 0 1 3.568 3.57A3.573 3.573 0 0 1 5.61 9.75M5.736.447a5.712 5.712 0 0 0-3.622 1.288V.803H-.001V15h1.059c.582 0 1.056-.473 1.056-1.057v-3.315A5.735 5.735 0 1 0 5.736.447" fill="#00A7E0" mask="url(#b)"/>
    </g>
    <path d="M85.927 1.115h-.662v.87h.662a.441.441 0 0 0 .416-.426c0-.255-.218-.444-.416-.444zm.378 2.042l-.596-.908h-.444v.908h-.274V.86h.936c.387 0 .7.274.7.699 0 .51-.455.681-.587.681l.615.917h-.35zM85.747.246c-.973 0-1.758.775-1.758 1.758a1.76 1.76 0 0 0 1.758 1.757 1.76 1.76 0 0 0 1.758-1.757c0-.983-.784-1.758-1.758-1.758zm0 3.76a2.004 2.004 0 0 1 0-4.005c1.115 0 2.004.888 2.004 2.003a1.998 1.998 0 0 1-2.004 2.002z" fill="#00A7E0"/>
  </g>
</svg>
