<?xml version="1.0" encoding="utf-8"?>
<!-- Generator: Adobe Illustrator 23.0.1, SVG Export Plug-In . SVG Version: 6.00 Build 0)  -->
<svg version="1.1" id="Layer_1" xmlns="http://www.w3.org/2000/svg" xmlns:xlink="http://www.w3.org/1999/xlink" x="0px" y="0px"
	 viewBox="0 0 74 22" style="enable-background:new 0 0 74 22;" xml:space="preserve">
<g>
	<path d="M11,0C4.9,0,0,4.9,0,11c0,6.1,4.9,11,11,11c6.1,0,11-4.9,11-11S17.1,0,11,0z M16,15.9c-0.2,0.3-0.6,0.4-0.9,0.2
		c0,0,0,0,0,0c-2.6-1.6-5.8-1.9-9.7-1.1c-0.4,0.1-0.7-0.1-0.8-0.5s0.1-0.7,0.5-0.8l0,0c4.2-1,7.8-0.6,10.7,1.2
		C16.1,15.1,16.2,15.5,16,15.9C16,15.9,16,15.9,16,15.9z M17.4,12.9c-0.2,0.4-0.8,0.5-1.2,0.3c-3-1.8-7.5-2.3-11-1.3
		c-0.5,0.1-0.9-0.1-1.1-0.6c-0.1-0.5,0.1-0.9,0.6-1.1c4-1.2,9-0.6,12.4,1.5C17.5,11.9,17.6,12.5,17.4,12.9L17.4,12.9z M17.5,9.8
		C14,7.7,8.1,7.5,4.7,8.5C4.2,8.6,3.6,8.3,3.4,7.8C3.3,7.2,3.6,6.7,4.1,6.5C8,5.3,14.5,5.6,18.5,8c0.5,0.3,0.6,0.9,0.4,1.4
		C18.6,9.9,18,10,17.5,9.8z M30.6,11c-1.9-0.4-2.2-0.7-2.2-1.4c0-0.6,0.6-1,1.5-1c0.9,0,1.7,0.3,2.6,0.9c0,0,0.1,0,0.1,0
		c0,0,0.1,0,0.1-0.1l0.9-1.3c0-0.1,0-0.1,0-0.2c0,0,0,0,0,0c-1.1-0.8-2.3-1.2-3.6-1.2c-2,0-3.5,1.2-3.5,2.9c0,1.8,1.2,2.5,3.4,3
		c1.8,0.4,2.1,0.7,2.1,1.3c0,0.7-0.6,1.1-1.6,1.1c-1.1,0-2-0.4-3-1.2c0,0-0.1,0-0.1,0c0,0-0.1,0-0.1,0l-1,1.2c0,0.1,0,0.1,0,0.2
		c1.2,1,2.6,1.5,4.2,1.5c2.2,0,3.6-1.2,3.6-3C33.9,12.4,32.9,11.5,30.6,11z M38.9,9.2c-1,0-1.7,0.4-2.4,1.1V9.5
		c0-0.1-0.1-0.1-0.1-0.1c0,0,0,0,0,0h-1.7c-0.1,0-0.1,0-0.1,0.1c0,0,0,0,0,0v9.3c0,0.1,0.1,0.1,0.1,0.1h1.7c0.1,0,0.1,0,0.1-0.1
		v-2.9c0.6,0.7,1.4,1,2.4,1c1.8,0,3.6-1.3,3.6-3.8C42.4,10.5,40.6,9.2,38.9,9.2z M40.5,13c0,1.3-0.8,2.2-2,2.2s-2-0.9-2-2.2
		c0-1.2,0.9-2.2,2-2.2S40.5,11.8,40.5,13z M47,9.2c-2.3,0-4.1,1.7-4.1,3.9c0,2.1,1.8,3.8,4.1,3.8c2.3,0,4.1-1.7,4.1-3.9
		C51.1,10.9,49.3,9.2,47,9.2z M47,15.2c-1.2,0-2.1-0.9-2.1-2.2c0-1.3,0.9-2.2,2.1-2.2s2.2,0.9,2.2,2.2C49.1,14.3,48.3,15.2,47,15.2
		L47,15.2z M56,9.3h-1.9V7.5c0-0.1-0.1-0.1-0.1-0.1c0,0,0,0,0,0h-1.7c-0.1,0-0.1,0-0.1,0.1c0,0,0,0,0,0v1.8h-0.8
		c-0.1,0-0.1,0-0.1,0.1c0,0,0,0,0,0v1.4c0,0.1,0.1,0.1,0.1,0.1h0.8v3.6c0,1.5,0.8,2.2,2.3,2.2c0.6,0,1.1-0.1,1.6-0.4
		c0,0,0.1-0.1,0.1-0.1V15c0,0,0-0.1-0.1-0.1c0,0-0.1,0-0.1,0c-0.3,0.2-0.7,0.2-1,0.2c-0.5,0-0.8-0.2-0.8-0.8V11H56
		c0.1,0,0.1-0.1,0.1-0.1V9.5C56.1,9.4,56.1,9.3,56,9.3L56,9.3z M62.5,9.4V9.1c0-0.7,0.3-1,0.9-1c0.4,0,0.6,0.1,1,0.2
		c0,0,0.1,0,0.1,0c0,0,0.1-0.1,0.1-0.1V6.8c0-0.1,0-0.1-0.1-0.1C64,6.6,63.6,6.5,63,6.5c-1.6,0-2.4,0.8-2.4,2.5v0.3h-0.8
		c-0.1,0-0.1,0.1-0.1,0.1v1.4c0,0.1,0.1,0.1,0.1,0.1h0.8v5.6c0,0.1,0.1,0.1,0.1,0.1h1.7c0.1,0,0.1,0,0.1-0.1V11h1.6l2.4,5.6
		c-0.3,0.6-0.6,0.7-0.9,0.7c-0.3,0-0.6-0.1-0.9-0.3c0,0-0.1,0-0.1,0c0,0-0.1,0-0.1,0.1l-0.6,1.2c0,0.1,0,0.1,0.1,0.2
		c0.6,0.3,1.2,0.5,1.8,0.4c1.3,0,1.9-0.6,2.6-2.1l3-7.3c0,0,0-0.1,0-0.1c0,0-0.1-0.1-0.1-0.1h-1.8c-0.1,0-0.1,0-0.1,0.1l-1.8,5l-2-5
		c0-0.1-0.1-0.1-0.1-0.1L62.5,9.4L62.5,9.4L62.5,9.4z M58.7,9.3H57c-0.1,0-0.1,0-0.1,0.1c0,0,0,0,0,0v7.1c0,0.1,0.1,0.1,0.1,0.1h1.7
		c0.1,0,0.1,0,0.1-0.1V9.5C58.9,9.4,58.8,9.3,58.7,9.3z"/>
	<ellipse cx="57.9" cy="7.3" rx="1.2" ry="1.2"/>
	<path d="M72.8,11.6c-0.7,0-1.2-0.5-1.2-1.1c0-0.6,0.5-1.2,1.2-1.2c0.7,0,1.2,0.5,1.2,1.1C74,11.1,73.4,11.6,72.8,11.6L72.8,11.6z
		 M72.8,9.4c-0.6,0-1.1,0.5-1.1,1c0,0.6,0.5,1,1.1,1c0.6,0,1.1-0.5,1.1-1C73.8,9.9,73.3,9.4,72.8,9.4z M73,10.6l0.3,0.5h-0.3
		l-0.3-0.4h-0.3V11h-0.2V9.8h0.6c0.3,0,0.5,0.1,0.5,0.4C73.3,10.4,73.2,10.6,73,10.6z M72.8,10.1h-0.3v0.4h0.3
		c0.2,0,0.2-0.1,0.2-0.2C73.1,10.1,73,10.1,72.8,10.1L72.8,10.1z"/>
</g>
</svg>
