<svg width="74" height="22" viewBox="0 0 74 22" xmlns="http://www.w3.org/2000/svg">
  <g fill="#1ED760" fill-rule="nonzero">
    <path d="M11 0C4.915 0 0 4.928 0 11c0 6.085 4.928 11 11 11 6.085 0 11-4.928 11-11S17.072 0 11 0zm5.047 15.876a.683.683 0 0 1-.947.223c-2.589-1.577-5.835-1.932-9.672-1.064a.68.68 0 1 1-.302-1.327c4.192-.96 7.793-.553 10.684 1.222a.687.687 0 0 1 .237.946zm1.34-2.997a.87.87 0 0 1-1.183.29c-2.957-1.814-7.464-2.34-10.96-1.288a.85.85 0 1 1-.486-1.63c3.995-1.21 8.962-.63 12.366 1.459.395.236.513.762.263 1.17zm.118-3.128C13.957 7.65 8.11 7.451 4.718 8.477a1.036 1.036 0 0 1-1.288-.684 1.036 1.036 0 0 1 .684-1.288c3.89-1.182 10.356-.946 14.43 1.472.486.29.644.92.354 1.407-.262.499-.906.657-1.393.367zM30.603 10.998c-1.901-.43-2.23-.745-2.23-1.388 0-.606.59-1.01 1.47-1.01.852 0 1.705.316 2.596.947.027.025.066.025.092.025.04 0 .066-.025.079-.05l.931-1.263a.117.117 0 0 0-.026-.164c-1.063-.82-2.256-1.212-3.646-1.212-2.046 0-3.476 1.187-3.476 2.878 0 1.818 1.233 2.461 3.37 2.954 1.81.403 2.126.744 2.126 1.337 0 .67-.617 1.086-1.614 1.086-1.101 0-2.006-.354-3.016-1.2-.026-.024-.066-.024-.092-.024-.04 0-.065.012-.078.037l-1.037 1.187c-.039.05-.039.126.014.164a6.342 6.342 0 0 0 4.183 1.54c2.203 0 3.633-1.161 3.633-2.954-.026-1.514-.97-2.347-3.279-2.89zM38.852 9.193c-.957 0-1.744.366-2.386 1.11v-.832a.115.115 0 0 0-.118-.114h-1.692a.115.115 0 0 0-.118.114v9.29c0 .062.052.113.118.113h1.692c.065 0 .118-.05.118-.114v-2.928c.642.694 1.43 1.035 2.386 1.035 1.771 0 3.58-1.313 3.58-3.837-.012-2.512-1.809-3.837-3.58-3.837zm1.6 3.837c0 1.287-.826 2.171-1.993 2.171-1.167 0-2.033-.934-2.033-2.17 0-1.238.879-2.172 2.033-2.172s1.993.909 1.993 2.171zM47.036 9.193c-2.282 0-4.079 1.691-4.079 3.862 0 2.146 1.784 3.825 4.053 3.825 2.295 0 4.092-1.692 4.092-3.85 0-2.146-1.784-3.837-4.066-3.837zm0 6.02c-1.22 0-2.138-.946-2.138-2.183 0-1.25.892-2.158 2.112-2.158 1.22 0 2.15.946 2.15 2.196-.012 1.237-.904 2.146-2.124 2.146zM55.98 9.345h-1.862V7.502A.115.115 0 0 0 54 7.388h-1.692a.115.115 0 0 0-.118.114v1.843h-.813a.115.115 0 0 0-.118.113v1.401c0 .063.052.114.118.114h.813v3.635c0 1.464.76 2.209 2.256 2.209.603 0 1.115-.127 1.587-.38.04-.024.065-.062.065-.1v-1.338c0-.038-.026-.076-.052-.1a.101.101 0 0 0-.118 0 2.132 2.132 0 0 1-.997.226c-.55 0-.787-.24-.787-.77v-3.37h1.863c.065 0 .118-.05.118-.113V9.47c-.014-.076-.066-.126-.145-.126zM62.498 9.357V9.13c0-.669.263-.96.853-.96.354 0 .642.064.957.165.04.013.079 0 .118-.013.026-.025.053-.063.053-.1V6.845c0-.05-.04-.101-.092-.114-.341-.1-.76-.19-1.417-.19-1.573 0-2.4.846-2.4 2.462v.34h-.813c-.065 0-.13.051-.13.114v1.414c0 .063.052.113.13.113h.813v5.604c0 .063.053.114.119.114h1.691c.066 0 .118-.05.118-.114v-5.604h1.587l2.426 5.604c-.275.594-.55.707-.918.707-.301 0-.616-.088-.93-.252-.027-.013-.066-.013-.106-.013-.026.013-.065.038-.078.063l-.577 1.212c-.027.063 0 .126.052.151a3.652 3.652 0 0 0 1.81.442c1.259 0 1.94-.568 2.557-2.07l2.951-7.32a.119.119 0 0 0-.013-.114.12.12 0 0 0-.105-.05h-1.77c-.053 0-.105.038-.118.075l-1.81 4.973-1.98-4.985c-.014-.05-.066-.076-.119-.076h-2.859v.025zM58.721 9.345H57.03a.115.115 0 0 0-.119.113v7.131c0 .063.053.114.119.114h1.691c.066 0 .118-.05.118-.114V9.471c.013-.076-.052-.126-.118-.126z"/>
    <ellipse cx="57.882" cy="7.275" rx="1.22" ry="1.174"/>
    <path d="M72.754 11.642c-.669 0-1.193-.518-1.193-1.149 0-.63.524-1.161 1.206-1.161.67 0 1.194.518 1.194 1.149 0 .63-.538 1.16-1.207 1.16zm.013-2.196c-.616 0-1.075.467-1.075 1.047 0 .568.459 1.035 1.075 1.035.617 0 1.076-.467 1.076-1.047a1.06 1.06 0 0 0-1.076-1.035zm.263 1.148l.34.455h-.288l-.302-.417h-.262v.417h-.236V9.837h.564c.288 0 .485.139.485.391-.013.202-.131.328-.301.366zm-.21-.543h-.315v.38h.315c.157 0 .249-.077.249-.19 0-.114-.092-.19-.25-.19z"/>
  </g>
</svg>
