<svg width="109" height="16" xmlns="http://www.w3.org/2000/svg">
  <g fill="none" fill-rule="evenodd">
    <path d="M21.94 2.563A2.82 2.82 0 0 0 19.96.562C18.213.089 11.205.089 11.205.089s-7.007 0-8.755.473A2.82 2.82 0 0 0 .47 2.563C0 4.327 0 8.011 0 8.011s0 3.684.47 5.449a2.82 2.82 0 0 0 1.98 2c1.747.474 8.755.474 8.755.474s7.008 0 8.754-.473a2.82 2.82 0 0 0 1.982-2.001c.469-1.765.469-5.449.469-5.449s-.003-3.682-.47-5.448z" fill="red"/>
    <path fill="#FFF" d="M8.749 11.688l5.822-3.395-5.822-3.397z"/>
    <path d="M35.236 12.695c.124-.324.186-.852.186-1.586V8.017c0-.712-.062-1.233-.186-1.562-.124-.33-.343-.494-.655-.494-.303 0-.516.165-.64.494-.124.33-.186.85-.186 1.562v3.092c0 .734.06 1.262.178 1.586.119.324.334.486.648.486.312 0 .531-.162.655-.486zm-2.509 1.554c-.448-.302-.766-.771-.955-1.408-.189-.637-.283-1.484-.283-2.542V8.86c0-1.069.108-1.927.324-2.574.215-.648.552-1.12 1.011-1.416.459-.297 1.06-.446 1.805-.446.734 0 1.322.152 1.765.454.442.302.766.774.97 1.416.206.642.308 1.497.308 2.566v1.44c0 1.058-.1 1.908-.3 2.55-.199.642-.523 1.112-.97 1.408-.448.297-1.055.445-1.821.445-.788 0-1.406-.151-1.854-.453zM67.496 6.14c-.113.14-.189.369-.227.687-.038.319-.056.801-.056 1.449v.712h1.635v-.712c0-.637-.022-1.12-.065-1.449-.043-.329-.121-.56-.235-.696-.113-.135-.288-.202-.526-.202-.237 0-.413.07-.526.21zm-.283 4.175v.502c0 .637.018 1.115.056 1.433.038.318.116.55.235.696.119.146.302.219.55.219.335 0 .564-.13.688-.39.124-.258.192-.69.203-1.294l1.926.113c.01.087.016.206.016.356 0 .918-.25 1.603-.752 2.056-.502.453-1.212.68-2.13.68-1.1 0-1.871-.345-2.314-1.036-.442-.69-.664-1.759-.664-3.205V8.713c0-1.49.23-2.576.688-3.262.459-.685 1.244-1.028 2.356-1.028.766 0 1.354.14 1.764.421.41.28.699.718.866 1.311.167.594.251 1.414.251 2.46v1.7h-3.74zM27.323 10.248L24.78 1.07H27l.89 4.16c.227 1.025.394 1.9.502 2.622h.065c.075-.518.242-1.387.501-2.606l.923-4.176h2.218l-2.574 9.178v4.403h-2.201v-4.403M44.81 4.796v9.923H43.06l-.194-1.214h-.048c-.475.917-1.188 1.376-2.137 1.376-.659 0-1.144-.216-1.457-.648-.313-.431-.47-1.106-.47-2.023V4.796h2.234v7.284c0 .443.049.759.146.947.097.19.26.283.486.283.194 0 .38-.059.558-.178.178-.118.31-.27.397-.453V4.796h2.234M56.362 4.61v9.923h-1.749l-.194-1.215h-.048c-.475.918-1.188 1.376-2.137 1.376-.658 0-1.144-.215-1.457-.647-.313-.432-.47-1.106-.47-2.023V4.61h2.235v7.284c0 .443.048.758.145.947.097.189.26.283.486.283.194 0 .38-.059.558-.178.178-.118.31-.27.397-.453V4.61h2.234" fill="#000"/>
    <path fill="#000" d="M50.966 2.866h-2.218v11.785h-2.185V2.866h-2.218V1.07h6.62v1.796M61.759 10.305c0 .723-.03 1.29-.09 1.7-.058.41-.158.7-.299.873a.692.692 0 0 1-.566.26c-.184 0-.354-.044-.51-.13a.975.975 0 0 1-.38-.389V6.986c.075-.27.204-.49.388-.664.183-.172.383-.258.599-.258.227 0 .402.089.526.267.124.178.21.477.259.898.049.42.073 1.02.073 1.797v1.279zm2.048-4.048c-.136-.626-.354-1.079-.656-1.36-.302-.28-.718-.42-1.246-.42-.41 0-.794.116-1.15.348a2.366 2.366 0 0 0-.825.914h-.017V.511h-2.152v14.083h1.845l.227-.94h.048c.173.335.432.6.777.794.345.194.729.291 1.15.291.755 0 1.31-.348 1.667-1.044.356-.696.534-1.783.534-3.262v-1.57c0-1.111-.068-1.98-.202-2.606z"/>
    <path d="M80.134 6.134c-.4 2.055-.704 4.566-.865 5.6h-.113c-.127-1.068-.433-3.56-.848-5.584l-1.026-5.032h-3.125v13.58h1.94V3.505l.191 1.045 1.97 10.147h1.94L82.134 4.55l.209-1.05v11.198h1.939V1.118h-3.157l-.99 5.016h-.002zM89.68 12.728c-.178.372-.562.632-.947.632-.449 0-.625-.357-.625-1.23V4.846h-2.212v7.412c0 1.83.591 2.67 1.907 2.67.896 0 1.618-.404 2.116-1.375h.047l.193 1.213h1.73V4.844h-2.211v7.884h.001zM96.109 8.752c-.722-.535-1.17-.89-1.17-1.668 0-.55.257-.857.865-.857.626 0 .834.438.849 1.927l1.86-.08c.142-2.412-.641-3.416-2.677-3.416-1.89 0-2.82.857-2.82 2.622 0 1.602.769 2.331 2.017 3.285 1.074.842 1.7 1.311 1.7 1.99 0 .518-.322.873-.883.873-.656 0-1.042-.631-.944-1.73l-1.874.032c-.288 2.055.53 3.253 2.708 3.253 1.907 0 2.9-.89 2.9-2.67.001-1.62-.801-2.266-2.531-3.561zM99.87 4.844h2.116v9.923H99.87zM100.885.932c-.818 0-1.201.306-1.201 1.375 0 1.1.383 1.374 1.2 1.374.834 0 1.202-.275 1.202-1.374 0-1.02-.368-1.375-1.201-1.375zM108.992 11.196l-1.938-.097c0 1.748-.192 2.314-.85 2.314-.656 0-.768-.631-.768-2.686V8.799c0-1.99.127-2.622.786-2.622.608 0 .769.598.769 2.445l1.922-.128c.127-1.539-.064-2.59-.657-3.19-.433-.437-1.09-.646-2.003-.646-2.148 0-3.03 1.165-3.03 4.435v1.392c0 3.367.753 4.451 2.948 4.451.931 0 1.57-.193 2.004-.614.625-.588.865-1.59.817-3.127v.001z" fill="#000" fill-rule="nonzero"/>
  </g>
</svg>
